<?xml version="1.0" encoding="UTF-8" standalone="no"?>
<!-- Created with Inkscape (http://www.inkscape.org/) -->

<svg
   xmlns:dc="http://purl.org/dc/elements/1.1/"
   xmlns:cc="http://creativecommons.org/ns#"
   xmlns:rdf="http://www.w3.org/1999/02/22-rdf-syntax-ns#"
   xmlns:svg="http://www.w3.org/2000/svg"
   xmlns="http://www.w3.org/2000/svg"
   xmlns:sodipodi="http://sodipodi.sourceforge.net/DTD/sodipodi-0.dtd"
   xmlns:inkscape="http://www.inkscape.org/namespaces/inkscape"
   width="126mm"
   height="47mm"
   viewBox="0 0 126 47"
   version="1.1"
   id="svg893"
   sodipodi:docname="ottava-logo-full.svg"
   inkscape:version="0.92.2 5c3e80d, 2017-08-06">
  <defs
     id="defs887">
    <clipPath
       clipPathUnits="userSpaceOnUse"
       id="clipPath5620">
      <rect
         style="fill:#ff416b;fill-opacity:0.78571424;stroke:#ff416b;stroke-width:0.05291667;stroke-miterlimit:4;stroke-dasharray:none;stroke-opacity:1"
         id="rect5622"
         width="25.796875"
         height="18.142857"
         x="9.7328863"
         y="245.50075" />
    </clipPath>
    <clipPath
       clipPathUnits="userSpaceOnUse"
       id="clipPath5624">
      <rect
         style="fill:#ff416b;fill-opacity:0.78571424;stroke:#ff416b;stroke-width:0.05291667;stroke-miterlimit:4;stroke-dasharray:none;stroke-opacity:1"
         id="rect5626"
         width="25.796875"
         height="18.142857"
         x="9.7328863"
         y="245.50075" />
    </clipPath>
    <clipPath
       clipPathUnits="userSpaceOnUse"
       id="clipPath5628">
      <rect
         style="fill:#ff416b;fill-opacity:0.78571424;stroke:#ff416b;stroke-width:0.05291667;stroke-miterlimit:4;stroke-dasharray:none;stroke-opacity:1"
         id="rect5630"
         width="25.796875"
         height="18.142857"
         x="9.7328863"
         y="245.50075" />
    </clipPath>
    <clipPath
       clipPathUnits="userSpaceOnUse"
       id="clipPath5632">
      <rect
         style="fill:#ff416b;fill-opacity:0.78571424;stroke:#ff416b;stroke-width:0.05291667;stroke-miterlimit:4;stroke-dasharray:none;stroke-opacity:1"
         id="rect5634"
         width="25.796875"
         height="18.142857"
         x="9.7328863"
         y="245.50075" />
    </clipPath>
    <clipPath
       clipPathUnits="userSpaceOnUse"
       id="clipPath5636">
      <rect
         style="fill:#ff416b;fill-opacity:0.78571424;stroke:#ff416b;stroke-width:0.05291667;stroke-miterlimit:4;stroke-dasharray:none;stroke-opacity:1"
         id="rect5638"
         width="25.796875"
         height="18.142857"
         x="9.7328863"
         y="245.50075" />
    </clipPath>
    <clipPath
       clipPathUnits="userSpaceOnUse"
       id="clipPath5640">
      <rect
         style="fill:#ff416b;fill-opacity:0.78571424;stroke:#ff416b;stroke-width:0.05291667;stroke-miterlimit:4;stroke-dasharray:none;stroke-opacity:1"
         id="rect5642"
         width="25.796875"
         height="18.142857"
         x="9.7328863"
         y="245.50075" />
    </clipPath>
  </defs>
  <sodipodi:namedview
     id="base"
     pagecolor="#ffffff"
     bordercolor="#666666"
     borderopacity="1.0"
     inkscape:pageopacity="0.0"
     inkscape:pageshadow="2"
     inkscape:zoom="1.4"
     inkscape:cx="219.37006"
     inkscape:cy="103.60632"
     inkscape:document-units="mm"
     inkscape:current-layer="layer1"
     showgrid="false"
     inkscape:window-width="1440"
     inkscape:window-height="784"
     inkscape:window-x="0"
     inkscape:window-y="1"
     inkscape:window-maximized="1"
     inkscape:pagecheckerboard="true" />
  <metadata
     id="metadata890">
    <rdf:RDF>
      <cc:Work
         rdf:about="">
        <dc:format>image/svg+xml</dc:format>
        <dc:type
           rdf:resource="http://purl.org/dc/dcmitype/StillImage" />
        <dc:title></dc:title>
      </cc:Work>
    </rdf:RDF>
  </metadata>
  <g
     inkscape:label="Layer 1"
     inkscape:groupmode="layer"
     id="layer1"
     transform="translate(0,-250)">
    <ellipse
       style="fill:#000000;fill-opacity:0;stroke-width:0.05291667;stroke-miterlimit:4;stroke-dasharray:none"
       id="path4781"
       cx="14.165284"
       cy="247.68878"
       rx="4.8108511"
       ry="4.2763124"
       clip-path="url(#clipPath5640)" />
    <path
       style="fill:#00fdff;fill-opacity:0;stroke-width:0.02672695;stroke-miterlimit:4;stroke-dasharray:none"
       d="m 99.135757,281.03651 c -0.18937,-0.13264 -0.32014,-0.40929 -0.379,-0.80181 -0.10976,-0.73197 -0.27861,-0.75812 -1.61382,-0.2499 -2.53005,0.96301 -4.46137,1.19999 -6.46925,0.7938 -4.59012,-0.92855 -7.66421,-4.37805 -7.44523,-8.35442 0.1074,-1.95018 0.82009,-3.4145 2.44477,-5.02309 1.13045,-1.11927 2.58181,-1.92921 4.22943,-2.36027 1.58417,-0.41447 4.0389,-0.41377 5.49505,0.002 2.43327,0.69401 4.26426,2.02981 5.586603,4.07573 0.85799,1.32749 0.89521,1.59385 0.99817,7.14303 l 0.0924,4.97789 h -1.32498 c -0.967463,0 -1.402993,-0.0546 -1.614103,-0.20251 z m -4.94143,-2.87166 c 1.72169,-0.86169 2.76064,-2.87411 2.76407,-5.35397 0.003,-2.31384 -1.01261,-4.34179 -2.65993,-5.31023 -0.51811,-0.30458 -0.76704,-0.3601 -1.61479,-0.3601 -1.22486,0 -1.79557,0.24916 -2.74403,1.19796 -1.18776,1.18818 -1.89385,3.19441 -1.74928,4.97029 0.19671,2.41651 1.65226,4.52304 3.55006,5.13782 0.59937,0.19416 1.77201,0.0595 2.4539,-0.28177 z"
       id="path5340"
       inkscape:connector-curvature="0"
       clip-path="url(#clipPath5636)" />
    <path
       style="fill:#00fdff;fill-opacity:0;stroke-width:0.02672695;stroke-miterlimit:4;stroke-dasharray:none"
       d="m 58.95578,280.41888 c -1.210598,-0.15539 -2.204315,-0.68184 -2.524979,-1.33768 -0.325197,-0.66511 -0.46485,-2.13034 -0.574466,-6.02731 l -0.09304,-3.30746 -1.75207,-0.004 c -2.011265,-0.004 -5.684613,-0.20941 -5.799207,-0.324 -0.187777,-0.18778 2.106764,-2.12954 3.150217,-2.66588 0.292312,-0.15025 1.097626,-0.28034 2.405427,-0.38857 l 1.965998,-0.1627 0.08212,-2.67097 c 0.04517,-1.46902 0.09027,-2.97168 0.100226,-3.33923 l 0.0181,-0.66828 2.074132,-0.98197 c 1.140775,-0.54009 2.16308,-0.94785 2.271792,-0.90613 0.123129,0.0472 0.201798,0.26639 0.208634,0.58117 0.12223,5.62712 0.218599,7.67056 0.368838,7.82091 0.127711,0.1278 1.180801,0.16796 4.40419,0.16796 h 4.236342 l 0.08151,-2.80633 c 0.04482,-1.54348 0.08993,-3.05108 0.100224,-3.35023 l 0.01873,-0.54391 2.047349,-0.95948 c 1.126045,-0.52772 2.11714,-0.95949 2.20243,-0.95949 0.25914,0 0.29938,0.45224 0.40088,4.50569 0.0721,2.87698 0.14261,3.94918 0.26818,4.07474 0.12518,0.12519 1.38372,0.21041 4.74184,0.32109 2.51428,0.0829 4.59771,0.15855 4.62983,0.16817 0.15367,0.046 -0.85743,0.95497 -2.03554,1.82996 -1.49424,1.10978 -1.18866,1.04091 -5.35224,1.20633 l -2.11762,0.0841 0.0522,2.89189 c 0.0586,3.24522 0.15033,3.65122 0.93476,4.13603 0.68562,0.42374 1.8985,0.69237 3.17615,0.70346 0.62767,0.005 1.40905,0.0506 1.7364,0.10022 l 0.59517,0.0903 -0.56427,0.48269 c -0.31035,0.26547 -1.16413,0.91193 -1.89729,1.43657 l -1.33302,0.95389 -1.17013,-0.002 c -3.213023,-0.006 -4.748019,-0.31141 -5.473464,-1.08913 -0.679297,-0.72824 -0.745863,-1.13027 -0.859285,-5.18953 -0.05853,-2.09472 -0.138107,-3.93726 -0.176845,-4.09453 -0.03874,-0.15726 -0.176183,-0.33349 -0.305443,-0.39163 -0.129256,-0.0581 -2.053751,-0.13077 -4.27665,-0.16142 -3.833911,-0.0529 -4.046829,-0.043 -4.142677,0.19118 -0.169738,0.41478 -0.101388,4.72036 0.08868,5.58625 0.327712,1.49297 1.15403,1.9023 4.203266,2.08215 1.093157,0.0645 2.012248,0.14191 2.042419,0.17208 0.08537,0.0854 -0.698926,0.73612 -2.246416,1.86387 l -1.417322,1.03289 -1.78674,-0.0169 c -0.982704,-0.009 -2.200989,-0.0701 -2.707296,-0.13507 z"
       id="path5342"
       inkscape:connector-curvature="0"
       clip-path="url(#clipPath5632)" />
    <path
       style="fill:#00fdff;fill-opacity:0;stroke-width:0.02672695;stroke-miterlimit:4;stroke-dasharray:none"
       d="m 58.95578,280.41888 c -1.210598,-0.15539 -2.204315,-0.68184 -2.524979,-1.33768 -0.325197,-0.66511 -0.46485,-2.13034 -0.574466,-6.02731 l -0.09304,-3.30746 -1.75207,-0.004 c -2.011265,-0.004 -5.684613,-0.20941 -5.799207,-0.324 -0.187777,-0.18778 2.106764,-2.12954 3.150217,-2.66588 0.292312,-0.15025 1.097626,-0.28034 2.405427,-0.38857 l 1.965998,-0.1627 0.08212,-2.67097 c 0.04517,-1.46902 0.09027,-2.97168 0.100226,-3.33923 l 0.0181,-0.66828 2.074132,-0.98197 c 1.140775,-0.54009 2.16308,-0.94785 2.271792,-0.90613 0.123129,0.0472 0.201798,0.26639 0.208634,0.58117 0.12223,5.62712 0.218599,7.67056 0.368838,7.82091 0.127711,0.1278 1.180801,0.16796 4.40419,0.16796 h 4.236342 l 0.08151,-2.80633 c 0.04482,-1.54348 0.08993,-3.05108 0.100224,-3.35023 l 0.01873,-0.54391 2.047349,-0.95948 c 1.126045,-0.52772 2.11714,-0.95949 2.20243,-0.95949 0.25914,0 0.29938,0.45224 0.40088,4.50569 0.0721,2.87698 0.14261,3.94918 0.26818,4.07474 0.12518,0.12519 1.38372,0.21041 4.74184,0.32109 2.51428,0.0829 4.59771,0.15855 4.62983,0.16817 0.15367,0.046 -0.85743,0.95497 -2.03554,1.82996 -1.49424,1.10978 -1.18866,1.04091 -5.35224,1.20633 l -2.11762,0.0841 0.0522,2.89189 c 0.0586,3.24522 0.15033,3.65122 0.93476,4.13603 0.68562,0.42374 1.8985,0.69237 3.17615,0.70346 0.62767,0.005 1.40905,0.0506 1.7364,0.10022 l 0.59517,0.0903 -0.56427,0.48269 c -0.31035,0.26547 -1.16413,0.91193 -1.89729,1.43657 l -1.33302,0.95389 -1.17013,-0.002 c -3.213023,-0.006 -4.748019,-0.31141 -5.473464,-1.08913 -0.679297,-0.72824 -0.745863,-1.13027 -0.859285,-5.18953 -0.05853,-2.09472 -0.138107,-3.93726 -0.176845,-4.09453 -0.03874,-0.15726 -0.176183,-0.33349 -0.305443,-0.39163 -0.129256,-0.0581 -2.053751,-0.13077 -4.27665,-0.16142 -3.833911,-0.0529 -4.046829,-0.043 -4.142677,0.19118 -0.169738,0.41478 -0.101388,4.72036 0.08868,5.58625 0.327712,1.49297 1.15403,1.9023 4.203266,2.08215 1.093157,0.0645 2.012248,0.14191 2.042419,0.17208 0.08537,0.0854 -0.698926,0.73612 -2.246416,1.86387 l -1.417322,1.03289 -1.78674,-0.0169 c -0.982704,-0.009 -2.200989,-0.0701 -2.707296,-0.13507 z"
       id="path5344"
       inkscape:connector-curvature="0"
       clip-path="url(#clipPath5628)" />
    <path
       style="fill:#00fdff;fill-opacity:0;stroke-width:0.02672695;stroke-miterlimit:4;stroke-dasharray:none"
       d="m 58.95578,280.41888 c -1.210598,-0.15539 -2.204315,-0.68184 -2.524979,-1.33768 -0.325197,-0.66511 -0.46485,-2.13034 -0.574466,-6.02731 l -0.09304,-3.30746 -1.75207,-0.004 c -2.011265,-0.004 -5.684613,-0.20941 -5.799207,-0.324 -0.187777,-0.18778 2.106764,-2.12954 3.150217,-2.66588 0.292312,-0.15025 1.097626,-0.28034 2.405427,-0.38857 l 1.965998,-0.1627 0.08212,-2.67097 c 0.04517,-1.46902 0.09027,-2.97168 0.100226,-3.33923 l 0.0181,-0.66828 2.074132,-0.98197 c 1.140775,-0.54009 2.16308,-0.94785 2.271792,-0.90613 0.123129,0.0472 0.201798,0.26639 0.208634,0.58117 0.12223,5.62712 0.218599,7.67056 0.368838,7.82091 0.127711,0.1278 1.180801,0.16796 4.40419,0.16796 h 4.236342 l 0.08151,-2.80633 c 0.04482,-1.54348 0.08993,-3.05108 0.100224,-3.35023 l 0.01873,-0.54391 2.047349,-0.95948 c 1.126045,-0.52772 2.11714,-0.95949 2.20243,-0.95949 0.25914,0 0.29938,0.45224 0.40088,4.50569 0.0721,2.87698 0.14261,3.94918 0.26818,4.07474 0.12518,0.12519 1.38372,0.21041 4.74184,0.32109 2.51428,0.0829 4.59771,0.15855 4.62983,0.16817 0.15367,0.046 -0.85743,0.95497 -2.03554,1.82996 -1.49424,1.10978 -1.18866,1.04091 -5.35224,1.20633 l -2.11762,0.0841 0.0522,2.89189 c 0.0586,3.24522 0.15033,3.65122 0.93476,4.13603 0.68562,0.42374 1.8985,0.69237 3.17615,0.70346 0.62767,0.005 1.40905,0.0506 1.7364,0.10022 l 0.59517,0.0903 -0.56427,0.48269 c -0.31035,0.26547 -1.16413,0.91193 -1.89729,1.43657 l -1.33302,0.95389 -1.17013,-0.002 c -3.213023,-0.006 -4.748019,-0.31141 -5.473464,-1.08913 -0.679297,-0.72824 -0.745863,-1.13027 -0.859285,-5.18953 -0.05853,-2.09472 -0.138107,-3.93726 -0.176845,-4.09453 -0.03874,-0.15726 -0.176183,-0.33349 -0.305443,-0.39163 -0.129256,-0.0581 -2.053751,-0.13077 -4.27665,-0.16142 -3.833911,-0.0529 -4.046829,-0.043 -4.142677,0.19118 -0.169738,0.41478 -0.101388,4.72036 0.08868,5.58625 0.327712,1.49297 1.15403,1.9023 4.203266,2.08215 1.093157,0.0645 2.012248,0.14191 2.042419,0.17208 0.08537,0.0854 -0.698926,0.73612 -2.246416,1.86387 l -1.417322,1.03289 -1.78674,-0.0169 c -0.982704,-0.009 -2.200989,-0.0701 -2.707296,-0.13507 z"
       id="path5346"
       inkscape:connector-curvature="0"
       clip-path="url(#clipPath5624)" />
    <path
       style="fill:#00fdff;fill-opacity:0;stroke-width:0.02672695;stroke-miterlimit:4;stroke-dasharray:none"
       d="m 58.95578,280.41888 c -1.210598,-0.15539 -2.204315,-0.68184 -2.524979,-1.33768 -0.325197,-0.66511 -0.46485,-2.13034 -0.574466,-6.02731 l -0.09304,-3.30746 -1.75207,-0.004 c -2.011265,-0.004 -5.684613,-0.20941 -5.799207,-0.324 -0.187777,-0.18778 2.106764,-2.12954 3.150217,-2.66588 0.292312,-0.15025 1.097626,-0.28034 2.405427,-0.38857 l 1.965998,-0.1627 0.08212,-2.67097 c 0.04517,-1.46902 0.09027,-2.97168 0.100226,-3.33923 l 0.0181,-0.66828 2.074132,-0.98197 c 1.140775,-0.54009 2.16308,-0.94785 2.271792,-0.90613 0.123129,0.0472 0.201798,0.26639 0.208634,0.58117 0.12223,5.62712 0.218599,7.67056 0.368838,7.82091 0.127711,0.1278 1.180801,0.16796 4.40419,0.16796 h 4.236342 l 0.08151,-2.80633 c 0.04482,-1.54348 0.08993,-3.05108 0.100224,-3.35023 l 0.01873,-0.54391 2.047349,-0.95948 c 1.126045,-0.52772 2.11714,-0.95949 2.20243,-0.95949 0.25914,0 0.29938,0.45224 0.40088,4.50569 0.0721,2.87698 0.14261,3.94918 0.26818,4.07474 0.12518,0.12519 1.38372,0.21041 4.74184,0.32109 2.51428,0.0829 4.59771,0.15855 4.62983,0.16817 0.15367,0.046 -0.85743,0.95497 -2.03554,1.82996 -1.49424,1.10978 -1.18866,1.04091 -5.35224,1.20633 l -2.11762,0.0841 0.0522,2.89189 c 0.0586,3.24522 0.15033,3.65122 0.93476,4.13603 0.68562,0.42374 1.8985,0.69237 3.17615,0.70346 0.62767,0.005 1.40905,0.0506 1.7364,0.10022 l 0.59517,0.0903 -0.56427,0.48269 c -0.31035,0.26547 -1.16413,0.91193 -1.89729,1.43657 l -1.33302,0.95389 -1.17013,-0.002 c -3.213023,-0.006 -4.748019,-0.31141 -5.473464,-1.08913 -0.679297,-0.72824 -0.745863,-1.13027 -0.859285,-5.18953 -0.05853,-2.09472 -0.138107,-3.93726 -0.176845,-4.09453 -0.03874,-0.15726 -0.176183,-0.33349 -0.305443,-0.39163 -0.129256,-0.0581 -2.053751,-0.13077 -4.27665,-0.16142 -3.833911,-0.0529 -4.046829,-0.043 -4.142677,0.19118 -0.169738,0.41478 -0.101388,4.72036 0.08868,5.58625 0.327712,1.49297 1.15403,1.9023 4.203266,2.08215 1.093157,0.0645 2.012248,0.14191 2.042419,0.17208 0.08537,0.0854 -0.698926,0.73612 -2.246416,1.86387 l -1.417322,1.03289 -1.78674,-0.0169 c -0.982704,-0.009 -2.200989,-0.0701 -2.707296,-0.13507 z"
       id="path5348"
       inkscape:connector-curvature="0"
       clip-path="url(#clipPath5620)" />
    <path
       style="fill:#009696;fill-opacity:1;stroke-width:0.0534539;stroke-miterlimit:4;stroke-dasharray:none"
       d="m 89.310879,296.68204 c -0.418859,-0.084 -0.661389,-0.36946 -0.7684,-0.90451 -0.086,-0.43 -0.231534,-0.7813 -0.323408,-0.78066 -0.09187,5.3e-4 -1.008941,0.29878 -2.037929,0.66254 -4.809443,1.70017 -10.131055,0.0133 -12.297066,-3.89801 -0.690571,-1.24701 -0.798224,-1.71507 -0.792906,-3.44743 0.0072,-2.35592 0.515382,-3.5289 2.310715,-5.3339 1.667007,-1.67598 3.60948,-2.49289 6.260094,-2.6327 3.854791,-0.20333 6.766182,1.14342 8.795475,4.06859 l 1.069078,1.54105 0.08688,5.32116 c 0.06991,4.28185 0.0177,5.32186 -0.267269,5.3248 -0.194781,0.002 -0.594691,0.0482 -0.888688,0.10271 -0.293997,0.0545 -0.809956,0.0438 -1.146575,-0.0236 z m -5.393499,-3.0895 c 2.170824,-1.09667 3.265165,-3.85597 2.668722,-6.72901 -1.005792,-4.84488 -5.639681,-5.84123 -7.894968,-1.69753 -1.415092,2.59999 -0.956344,5.77753 1.117878,7.74304 1.451573,1.3755 2.419742,1.53657 4.108368,0.6835 z"
       id="path5362"
       inkscape:connector-curvature="0" />
    <path
       style="fill:#009696;fill-opacity:1;stroke-width:0.0534539;stroke-miterlimit:4;stroke-dasharray:none"
       d="m 97.706067,296.63445 c -0.169217,-0.11558 -1.34856,-3.09666 -2.620761,-6.62462 -1.272204,-3.52795 -2.547467,-7.05181 -2.83392,-7.83078 l -0.520825,-1.41631 0.869797,-0.35574 c 1.917552,-0.78427 2.024853,-0.77832 2.585294,0.14325 0.288509,0.47442 1.148228,2.55636 1.910482,4.62654 1.348166,3.66144 2.269667,5.76849 2.522802,5.76849 0.210087,0 1.615364,-2.92548 3.086124,-6.42463 1.67299,-3.98031 2.00952,-4.53373 2.75614,-4.53243 0.54277,10e-4 2.30788,0.91294 2.30788,1.19242 0,0.19236 -1.87907,4.89801 -4.19274,10.49963 -2.00645,4.85783 -2.01805,4.87768 -2.85318,4.88061 -0.4612,0.002 -1.259489,0.0661 -1.773982,0.14332 -0.514496,0.0772 -1.073894,0.0458 -1.243111,-0.0697 z"
       id="path5364"
       inkscape:connector-curvature="0" />
    <path
       style="fill:#009696;fill-opacity:1;stroke:#009696;stroke-width:0.02525381;stroke-miterlimit:4;stroke-dasharray:none;stroke-opacity:1"
       d=""
       id="path5478"
       inkscape:connector-curvature="0"
       transform="matrix(0.26458333,0,0,0.26458333,0,250)" />
    <path
       style="fill:#009696;fill-opacity:1;stroke:#009696;stroke-width:0.02525381;stroke-miterlimit:4;stroke-dasharray:none;stroke-opacity:1"
       d=""
       id="path5498"
       inkscape:connector-curvature="0"
       transform="matrix(0.26458333,0,0,0.26458333,0,250)" />
    <path
       style="fill:#009696;fill-opacity:1;stroke:#009696;stroke-width:0.02525381;stroke-miterlimit:4;stroke-dasharray:none;stroke-opacity:1"
       d=""
       id="path5502"
       inkscape:connector-curvature="0"
       transform="matrix(0.26458333,0,0,0.26458333,0,250)" />
    <path
       style="fill:#009696;fill-opacity:1;stroke:#009696;stroke-width:0.02525381;stroke-miterlimit:4;stroke-dasharray:none;stroke-opacity:1"
       d=""
       id="path5504"
       inkscape:connector-curvature="0"
       transform="matrix(0.26458333,0,0,0.26458333,0,250)" />
    <path
       style="fill:#009696;fill-opacity:1;stroke:#009696;stroke-width:0.0069492;stroke-miterlimit:4;stroke-dasharray:none;stroke-opacity:1"
       d="m 65.802677,296.84856 c -0.165373,-0.016 -0.729144,-0.037 -1.252826,-0.0465 -2.268162,-0.0415 -3.057504,-0.17847 -3.710726,-0.64394 -0.632047,-0.4504 -0.978169,-0.90747 -1.162399,-1.53501 -0.219927,-0.74914 -0.272759,-1.44914 -0.288597,-3.82383 -0.0191,-2.86513 -0.165235,-5.05181 -0.365588,-5.4709 -0.0366,-0.0766 -0.09008,-0.12033 -0.177448,-0.14527 -0.399804,-0.11415 -2.490404,-0.17319 -5.971579,-0.16863 l -2.238383,0.003 -0.10822,0.46498 c -0.08025,0.34481 -0.117401,0.61098 -0.143748,1.02989 -0.03783,0.60148 -0.01897,2.06155 0.03766,2.91382 0.0654,0.98448 0.245427,2.11124 0.398116,2.49173 0.217503,0.54199 0.799232,1.01936 1.537779,1.26192 0.70566,0.23175 1.2831,0.31374 2.337573,0.33191 1.396563,0.0241 2.152647,0.10124 2.19629,0.22429 0.04732,0.13337 -0.844325,0.90076 -2.797429,2.4076 l -0.918519,0.70865 -0.852141,-0.008 c -0.759341,-0.006 -0.801206,-0.01 -0.384419,-0.0297 0.259832,-0.0123 -0.17822,-0.0211 -0.985557,-0.0196 -1.498587,0.002 -1.824566,-0.0172 -2.670148,-0.16267 -0.687396,-0.11827 -1.438841,-0.49167 -1.831674,-0.91019 -0.167629,-0.17858 -0.24009,-0.30534 -0.11693,-0.20453 0.05047,0.0413 0.05253,0.0407 0.01503,-0.004 -0.02389,-0.0289 -0.06147,-0.0529 -0.08352,-0.0533 -0.02204,-5.8e-4 -0.03803,-0.0288 -0.03551,-0.0628 0.0026,-0.0352 -0.01072,-0.0517 -0.03073,-0.0384 -0.02222,0.0148 -0.02716,5.8e-4 -0.01331,-0.0384 0.01482,-0.0418 0.0094,-0.0535 -0.01669,-0.0361 -0.02609,0.0174 -0.03153,0.005 -0.01669,-0.0361 0.01209,-0.0341 0.0083,-0.0529 -0.0085,-0.0416 -0.03617,0.0242 -0.154238,-0.3036 -0.220104,-0.61107 -0.06703,-0.31289 -0.139155,-0.87029 -0.18026,-1.39307 -0.07744,-0.98485 -0.185738,-4.29234 -0.154417,-4.71586 0.0118,-0.15938 -0.0093,-0.92802 -0.04709,-1.71314 -0.03766,-0.78322 -0.06847,-1.4589 -0.06847,-1.5015 v -0.0774 l -2.029576,-0.0446 c -2.993015,-0.0657 -4.224147,-0.12472 -5.075854,-0.24343 -0.466551,-0.065 -0.478343,-0.0701 -0.478343,-0.20395 0,-0.0854 0.05119,-0.16582 0.242213,-0.38007 0.709435,-0.79574 2.455135,-2.25487 3.02234,-2.5262 0.219134,-0.10482 0.695103,-0.20976 1.279031,-0.28197 0.507309,-0.0627 1.903502,-0.18479 2.54431,-0.2224 l 0.422862,-0.0248 0.01871,-0.11235 c 0.02946,-0.1769 0.08062,-1.84997 0.122777,-4.01513 0.02127,-1.09313 0.04841,-2.23094 0.06029,-2.52845 l 0.02159,-0.54092 0.167044,-0.067 c 0.09187,-0.0369 0.309864,-0.14782 0.484426,-0.24663 1.339662,-0.75829 3.28636,-1.75447 3.669231,-1.87766 0.171146,-0.055 0.18665,-0.0396 0.237643,0.23764 0.08886,0.48307 0.130421,1.6312 0.204058,5.63734 0.0577,3.13909 0.06331,3.19299 0.347739,3.34193 0.445693,0.23338 0.986591,0.26241 4.444746,0.2386 1.598604,-0.011 3.029479,-0.0194 3.17972,-0.0184 0.210042,10e-4 0.303673,-0.0152 0.405188,-0.0713 0.186791,-0.10308 0.391835,-0.36819 0.437938,-0.56624 0.02302,-0.0989 0.05106,-0.8013 0.07029,-1.76136 0.05427,-2.70955 0.09982,-4.47936 0.120266,-4.67344 l 0.01955,-0.18566 0.639736,-0.33493 c 2.747976,-1.43867 3.331782,-1.7315 3.615817,-1.81367 0.13798,-0.0399 0.158419,-0.0379 0.197826,0.0204 0.133816,0.19796 0.18215,1.13954 0.216414,4.21594 0.01942,1.74412 0.04706,2.88566 0.08266,3.41492 0.05859,0.87109 0.13613,1.74766 0.156535,1.76973 0.02072,0.0224 1.230847,0.0858 2.768248,0.14486 0.780929,0.0301 1.793854,0.0718 2.250946,0.0929 0.457091,0.0211 0.908108,0.0282 1.00226,0.0159 0.222398,-0.0291 2.351384,0.0421 2.750476,0.0919 0.672129,0.0839 0.731755,0.15593 0.421468,0.50911 -0.358609,0.40819 -1.02774,0.98699 -2.415138,2.08908 l -0.784132,0.62288 -0.323565,-0.0122 c -0.177961,-0.006 -0.318164,-0.003 -0.311562,0.009 0.01577,0.0275 0.06561,0.0265 -2.924839,0.0592 l -2.589173,0.0283 -0.0021,0.33436 -0.0021,0.33435 0.01159,-0.32532 0.01159,-0.32532 1.577308,0.005 c 0.867519,0.003 1.539722,0.0108 1.493785,0.017 -0.04594,0.006 -0.594675,0.0376 -1.219417,0.0696 -0.624742,0.0319 -1.203547,0.0634 -1.286235,0.07 -0.08269,0.006 -0.234775,0.0135 -0.337976,0.0155 l -0.187637,0.003 0.0095,2.35793 c 0.0089,2.19592 0.0367,3.06841 0.117858,3.69499 0.07195,0.55548 0.177956,0.79537 0.509614,1.15323 0.460449,0.49682 1.251236,0.83391 2.410976,1.02772 0.698664,0.11677 0.742307,0.12011 1.695654,0.12998 0.882266,0.009 1.450239,0.0574 1.626502,0.13847 0.084,0.0386 0.08313,0.0397 -0.0481,0.0636 -0.127587,0.0233 -0.128722,0.0245 -0.02506,0.0294 0.05972,0.003 0.108577,0.0202 0.108577,0.0386 0,0.0184 -0.338262,0.30508 -0.751694,0.63706 -0.413433,0.33199 -0.751697,0.61158 -0.751697,0.62131 0,0.01 0.05262,-0.0249 0.11693,-0.0769 0.06431,-0.052 0.16996,-0.13755 0.234772,-0.19002 0.06481,-0.0525 0.125799,-0.0867 0.135528,-0.0763 0.01818,0.0197 -1.020966,0.86407 -1.096579,0.89107 -0.02889,0.0108 -0.02638,-0.006 0.008,-0.0541 0.04648,-0.0642 0.04581,-0.0654 -0.0092,-0.0188 -0.0326,0.0277 -0.05152,0.0587 -0.04205,0.0689 0.02294,0.0248 -0.04824,0.11561 -0.09061,0.11561 -0.01836,0 -0.01349,-0.0284 0.01082,-0.0633 0.03819,-0.0546 0.03761,-0.0568 -0.0043,-0.0162 -0.02668,0.0258 -0.0485,0.0651 -0.0485,0.0873 0,0.0222 -0.02088,0.0479 -0.04641,0.0571 -0.03174,0.0115 -0.03797,8.7e-4 -0.01971,-0.0331 0.01577,-0.0294 0.01426,-0.0375 -0.0037,-0.0198 -0.01672,0.0165 -0.02289,0.0344 -0.01371,0.0396 0.02564,0.0146 -0.07052,0.12902 -0.108407,0.12902 -0.01839,0 -0.01278,-0.0284 0.01244,-0.0633 0.04137,-0.0571 0.04024,-0.0585 -0.01154,-0.0146 -0.03157,0.0267 -0.05412,0.0653 -0.05011,0.0858 0.004,0.0204 -0.0136,0.0454 -0.03913,0.0555 -0.03003,0.0118 -0.03755,0.003 -0.02127,-0.0257 0.02019,-0.0353 -0.776689,0.58757 -1.114464,0.87114 -0.06764,0.0568 -0.135766,0.0661 -0.451017,0.0615 -0.204237,-0.003 -0.506648,-0.0184 -0.672021,-0.0344 z m -15.760549,-0.0936 c -0.03216,-0.009 -0.08478,-0.009 -0.11693,0 -0.03216,0.009 -0.0058,0.0165 0.05846,0.0165 0.06431,0 0.09062,-0.008 0.05846,-0.0165 z m 2.622582,8.6e-4 c -0.02297,-0.01 -0.06055,-0.01 -0.08352,0 -0.02297,0.01 -0.0042,0.0182 0.04176,0.0182 0.04594,0 0.06473,-0.009 0.04176,-0.0182 z m 11.943995,-8.6e-4 c -0.03194,-0.009 -0.09208,-0.01 -0.133633,-8.6e-4 -0.04156,0.009 -0.01543,0.016 0.05808,0.0164 0.0735,3e-4 0.1075,-0.006 0.07556,-0.0157 z m -15.184638,-0.0353 c -0.02297,-0.01 -0.06055,-0.01 -0.08352,0 -0.02297,0.01 -0.0042,0.0182 0.04176,0.0182 0.04594,0 0.06473,-0.009 0.04176,-0.0182 z m 14.749936,-8.6e-4 c -0.03216,-0.009 -0.08477,-0.009 -0.11693,0 -0.03216,0.009 -0.0058,0.0165 0.05846,0.0165 0.06431,0 0.09062,-0.008 0.05846,-0.0165 z m -0.384199,-0.0351 c -0.02297,-0.01 -0.06055,-0.01 -0.08352,0 -0.02297,0.01 -0.0042,0.0183 0.04176,0.0183 0.04594,0 0.06473,-0.009 0.04176,-0.0183 z m -0.351489,-0.0341 c -0.01111,-0.012 -0.03991,-0.0133 -0.06403,-0.003 -0.02665,0.0116 -0.01873,0.0201 0.02019,0.0218 0.03522,10e-4 0.05495,-0.006 0.04385,-0.0189 z m -16.828931,-0.85674 c 0,-0.006 -0.04886,-0.0591 -0.108577,-0.11745 l -0.10858,-0.10611 0.09813,0.11743 c 0.09146,0.10949 0.119031,0.13406 0.119031,0.10611 z m 13.630746,-0.25412 c 0,-0.006 -0.03383,-0.0435 -0.07517,-0.0813 l -0.07517,-0.0688 0.06364,0.0813 c 0.05981,0.0764 0.0867,0.0978 0.0867,0.0688 z m 8.423251,-0.087 c 0.04156,-0.0573 0.04037,-0.0586 -0.01262,-0.0136 -0.03216,0.0272 -0.05846,0.0557 -0.05846,0.0633 0,0.0297 0.02743,0.0108 0.07108,-0.0495 z m 0.133636,-0.10842 c 0.04156,-0.0573 0.04038,-0.0586 -0.01262,-0.0136 -0.03216,0.0273 -0.05847,0.0557 -0.05847,0.0633 0,0.0297 0.02744,0.0108 0.07108,-0.0497 z m 0.133636,-0.1084 c 0.04156,-0.0573 0.04037,-0.0586 -0.01262,-0.0136 -0.03215,0.0273 -0.05846,0.0557 -0.05846,0.0633 0,0.0297 0.02744,0.0108 0.07108,-0.0495 z m 0.133633,-0.10842 c 0.04156,-0.0573 0.04038,-0.0586 -0.01262,-0.0136 -0.03216,0.0273 -0.05846,0.0557 -0.05846,0.0633 0,0.0298 0.02743,0.0108 0.07108,-0.0496 z m -13.396884,-0.32523 c 0.04156,-0.0573 0.04037,-0.0586 -0.01262,-0.0136 -0.03215,0.0273 -0.05846,0.0557 -0.05846,0.0633 0,0.0297 0.02743,0.0108 0.07108,-0.0496 z m 0.300678,-0.25296 c 0.04156,-0.0573 0.04037,-0.0586 -0.01262,-0.0136 -0.03216,0.0273 -0.05847,0.0557 -0.05847,0.0633 0,0.0297 0.02743,0.0108 0.07108,-0.0495 z m 0.212895,-0.18972 c 0.03326,-0.0397 0.05295,-0.0722 0.04376,-0.0722 -0.0092,0 -0.04391,0.0325 -0.07717,0.0722 -0.03326,0.0398 -0.05295,0.0723 -0.04377,0.0723 0.0092,0 0.04392,-0.0326 0.07717,-0.0723 z m -10.183535,-0.079 c -0.01066,-0.0289 -0.01857,-0.0202 -0.02019,0.0218 -0.0013,0.0381 0.0065,0.0595 0.01754,0.0475 0.01111,-0.012 0.01228,-0.0432 0.0026,-0.0692 z m 10.532655,-0.29292 c -0.0083,-0.008 -0.06671,0.0533 -0.129863,0.13431 l -0.114826,0.14732 0.129862,-0.13431 c 0.07142,-0.0739 0.123095,-0.14016 0.114827,-0.14732 z m -10.566061,0.004 c -0.01066,-0.0289 -0.01857,-0.0202 -0.02019,0.0219 -0.0013,0.0381 0.0065,0.0594 0.01754,0.0474 0.01111,-0.012 0.01228,-0.0432 0.0026,-0.0692 z m 13.697561,-0.21682 c -0.01066,-0.0288 -0.01857,-0.0202 -0.02019,0.0218 -0.0013,0.0381 0.0065,0.0595 0.01754,0.0475 0.01111,-0.012 0.01228,-0.0432 0.0026,-0.0692 z m -13.731666,-0.11067 c -0.0093,-0.0249 -0.01685,-0.004 -0.01685,0.0452 0,0.0496 0.0076,0.07 0.01685,0.0452 0.0093,-0.0249 0.0093,-0.0655 0,-0.0903 z m 24.240934,0.0573 c -0.02297,-0.01 -0.06055,-0.01 -0.08352,0 -0.02297,0.01 -0.0042,0.0183 0.04176,0.0183 0.04594,0 0.06473,-0.009 0.04176,-0.0183 z m -0.366861,-0.0359 c -0.02262,-0.01 -0.06772,-0.0108 -0.100224,-10e-4 -0.03251,0.009 -0.014,0.0173 0.04112,0.0179 0.05512,8.6e-4 0.08172,-0.006 0.0591,-0.0167 z m -0.351036,-0.0372 c -0.03194,-0.009 -0.09208,-0.01 -0.133635,-8.7e-4 -0.04156,0.009 -0.01543,0.0161 0.05808,0.0164 0.0735,2.9e-4 0.1075,-0.006 0.07556,-0.0157 z m -14.266597,-0.0331 c -0.01109,-0.012 -0.03992,-0.0133 -0.06403,-0.003 -0.02665,0.0116 -0.01873,0.0201 0.02019,0.0218 0.03522,10e-4 0.05495,-0.006 0.04385,-0.0189 z m 13.899102,-0.003 c -0.03194,-0.009 -0.09208,-0.01 -0.133636,-8.6e-4 -0.04156,0.009 -0.01543,0.016 0.05808,0.0164 0.0735,2.8e-4 0.1075,-0.006 0.07556,-0.0157 z m -14.199084,-0.0362 c -0.03216,-0.009 -0.08478,-0.009 -0.11693,0 -0.03215,0.009 -0.0058,0.0166 0.05847,0.0166 0.06431,0 0.09062,-0.008 0.05846,-0.0166 z m 13.847902,-5.7e-4 c -0.04134,-0.009 -0.108995,-0.009 -0.150339,0 -0.04134,0.009 -0.0075,0.0157 0.07517,0.0157 0.08268,0 0.116512,-0.008 0.07517,-0.0157 z m -14.165283,-0.0361 c -0.04134,-0.009 -0.108998,-0.009 -0.150339,0 -0.04134,0.009 -0.0075,0.0157 0.07517,0.0157 0.08269,0 0.116512,-0.008 0.07517,-0.0157 z m 5.05918,-0.0897 c -0.01066,-0.0289 -0.01857,-0.0202 -0.02019,0.0218 -0.0013,0.0381 0.0065,0.0595 0.01754,0.0475 0.01109,-0.012 0.01228,-0.0432 0.0026,-0.0692 z M 45.89652,293.30196 c -0.0093,-0.0249 -0.01685,-0.004 -0.01685,0.0452 0,0.0496 0.0076,0.07 0.01685,0.0451 0.0093,-0.0249 0.0093,-0.0654 0,-0.0903 z m 13.697561,-0.25313 c -0.0093,-0.0249 -0.01685,-0.004 -0.01685,0.0452 0,0.0496 0.0076,0.07 0.01685,0.0452 0.0093,-0.0249 0.0093,-0.0654 0,-0.0903 z M 45.864138,292.8869 c -0.0085,-0.0352 -0.01595,-0.0151 -0.01664,0.0445 -7.93e-4,0.0596 0.0062,0.0884 0.0154,0.0639 0.0092,-0.0244 0.0097,-0.0732 0.0013,-0.10841 z m 13.697561,-0.25295 c -0.0085,-0.0352 -0.01595,-0.0152 -0.01664,0.0444 -7.93e-4,0.0596 0.0062,0.0884 0.0154,0.0639 0.0092,-0.0245 0.0097,-0.0732 0.0013,-0.10841 z m -13.731997,-0.16331 c -0.0093,-0.0249 -0.01685,-0.004 -0.01685,0.0452 0,0.0496 0.0076,0.07 0.01685,0.0452 0.0093,-0.0249 0.0093,-0.0655 0,-0.0903 z m 13.698466,-0.3433 c -0.0084,-0.0348 -0.01527,-0.006 -0.01527,0.0633 0,0.0695 0.0069,0.098 0.01527,0.0633 0.0084,-0.0348 0.0084,-0.0917 0,-0.12647 z M 45.79732,291.98348 c -0.0085,-0.0351 -0.01595,-0.0151 -0.01664,0.0445 -7.93e-4,0.0596 0.0062,0.0884 0.0154,0.0639 0.0092,-0.0244 0.0097,-0.0732 0.0013,-0.10841 z m 13.69804,-0.37969 c -0.008,-0.045 -0.01484,-0.0167 -0.01521,0.0628 -2.65e-4,0.0795 0.0062,0.11628 0.01453,0.0818 0.0084,-0.0345 0.0087,-0.0996 7.93e-4,-0.14454 z m -13.731449,-0.16236 c -0.0085,-0.0352 -0.01595,-0.0151 -0.01664,0.0444 -7.93e-4,0.0596 0.0062,0.0884 0.0154,0.0639 0.0092,-0.0244 0.0097,-0.0732 0.0013,-0.10841 z m 13.698384,-0.46997 c -0.0077,-0.0549 -0.01416,-0.0186 -0.01442,0.0808 -2.65e-4,0.0994 0.006,0.14432 0.01397,0.0998 0.0079,-0.0445 0.0081,-0.12576 5.29e-4,-0.1807 z M 45.73038,290.82642 c -0.0084,-0.0348 -0.01527,-0.006 -0.01527,0.0633 0,0.0695 0.0069,0.098 0.01527,0.0633 0.0084,-0.0348 0.0084,-0.0917 0,-0.12647 z m 13.698701,-0.56013 c -0.0074,-0.0646 -0.01347,-0.0117 -0.01347,0.11745 0,0.12919 0.0061,0.18204 0.01347,0.11745 0.0074,-0.0646 0.0074,-0.1703 0,-0.2349 z m -13.731165,-0.0899 c -0.0077,-0.0549 -0.01418,-0.0186 -0.01442,0.0808 -2.33e-4,0.0994 0.006,0.14432 0.01397,0.0998 0.0079,-0.0444 0.0081,-0.12576 5.29e-4,-0.18069 z m -0.03317,-0.70452 c -0.0074,-0.0649 -0.01368,-0.0205 -0.01386,0.0988 -1.99e-4,0.11925 0.0059,0.17238 0.01352,0.11808 0.0076,-0.0543 0.0078,-0.15186 2.65e-4,-0.21682 z m -0.03328,-0.74145 c -0.0072,-0.0745 -0.0131,-0.0135 -0.0131,0.13552 0,0.14906 0.0059,0.21003 0.0131,0.13551 0.0072,-0.0745 0.0072,-0.1965 0,-0.27103 z M 64.20719,286.9399 c -0.0062,-0.163 -0.01119,-0.0199 -0.01116,0.31797 3.1e-5,0.33788 0.0051,0.47123 0.01122,0.29635 0.0061,-0.17488 0.0061,-0.45133 -6.9e-5,-0.61432 z m 7.529798,-3.26866 c 0.04156,-0.0573 0.04038,-0.0586 -0.01262,-0.0136 -0.03215,0.0273 -0.05847,0.0557 -0.05847,0.0633 0,0.0297 0.02744,0.0108 0.07108,-0.0496 z m 0.133636,-0.10841 c 0.04155,-0.0573 0.04037,-0.0586 -0.01262,-0.0136 -0.03215,0.0273 -0.05846,0.0557 -0.05846,0.0633 0,0.0298 0.02743,0.0108 0.07108,-0.0495 z m 0.267269,-0.21682 c 0.04155,-0.0573 0.04037,-0.0586 -0.01262,-0.0136 -0.03215,0.0273 -0.05846,0.0557 -0.05846,0.0633 0,0.0297 0.02744,0.0108 0.07108,-0.0497 z m 0.133635,-0.10841 c 0.04155,-0.0573 0.04037,-0.0586 -0.01262,-0.0136 -0.03216,0.0273 -0.05846,0.0557 -0.05846,0.0633 0,0.0298 0.02743,0.0108 0.07108,-0.0495 z m 1.187863,-1.28059 c -0.01066,-0.0289 -0.01857,-0.0202 -0.02019,0.0218 -0.0013,0.0381 0.0065,0.0595 0.01754,0.0475 0.01111,-0.012 0.01228,-0.0432 0.0026,-0.0692 z m -0.43278,-0.15957 c -0.01111,-0.012 -0.03992,-0.0133 -0.06403,-0.003 -0.02665,0.0116 -0.01873,0.0201 0.02019,0.0219 0.03522,10e-4 0.05495,-0.006 0.04385,-0.0189 z m -0.316687,-0.0382 c -0.02297,-0.01 -0.06055,-0.01 -0.08352,0 -0.02297,0.01 -0.0042,0.0182 0.04176,0.0182 0.04594,0 0.06473,-0.009 0.04176,-0.0182 z m -0.400905,-0.0361 c -0.02297,-0.01 -0.06055,-0.01 -0.08352,0 -0.02297,0.01 -0.0042,0.0183 0.04176,0.0183 0.04594,0 0.06473,-0.009 0.04176,-0.0183 z m -0.451017,-0.0371 c -0.03215,-0.009 -0.08478,-0.009 -0.116929,0 -0.03216,0.009 -0.0058,0.0165 0.05846,0.0165 0.06431,0 0.09062,-0.008 0.05846,-0.0165 z m -0.500739,-0.036 c -0.03194,-0.009 -0.09208,-0.01 -0.133636,-8.6e-4 -0.04156,0.009 -0.01543,0.016 0.05808,0.0164 0.0735,2.9e-4 0.107498,-0.006 0.07556,-0.0157 z m -0.567741,-0.0371 c -0.0502,-0.009 -0.140403,-0.009 -0.200451,-2.8e-4 -0.06005,0.008 -0.01897,0.0148 0.09127,0.015 0.110249,2.2e-4 0.159379,-0.006 0.109177,-0.0146 z"
       id="path5512"
       inkscape:connector-curvature="0" />
    <path
       inkscape:connector-curvature="0"
       id="path5648"
       d="m 123.17754,296.68204 c -0.41886,-0.084 -0.66139,-0.36946 -0.7684,-0.90451 -0.086,-0.43 -0.23153,-0.7813 -0.32341,-0.78066 -0.0919,5.3e-4 -1.00894,0.29878 -2.03793,0.66254 -4.80944,1.70017 -10.13105,0.0133 -12.29706,-3.89801 -0.69057,-1.24701 -0.79823,-1.71507 -0.79291,-3.44743 0.007,-2.35592 0.51538,-3.5289 2.31072,-5.3339 1.667,-1.67598 3.60948,-2.49289 6.26009,-2.6327 3.85479,-0.20333 6.76618,1.14342 8.79548,4.06859 l 1.06907,1.54105 0.0869,5.32116 c 0.0699,4.28185 0.0177,5.32186 -0.26726,5.3248 -0.19479,0.002 -0.5947,0.0482 -0.88869,0.10271 -0.294,0.0545 -0.80996,0.0438 -1.14658,-0.0236 z m -5.3935,-3.0895 c 2.17083,-1.09667 3.26517,-3.85597 2.66872,-6.72901 -1.00579,-4.84488 -5.63968,-5.84123 -7.89496,-1.69753 -1.4151,2.59999 -0.95635,5.77753 1.11787,7.74304 1.45158,1.3755 2.41975,1.53657 4.10837,0.6835 z"
       style="fill:#009696;fill-opacity:1;stroke-width:0.0534539;stroke-miterlimit:4;stroke-dasharray:none" />
    <g
       transform="matrix(0.15768708,0,0,0.16949818,2.8921474,250.9463)"
       id="layer1-5"
       inkscape:label="Layer 1">
      <path
         inkscape:connector-curvature="0"
         id="path4319"
         d="M 102.63176,118.44119 A 116.28506,76.729163 0 0 0 -13.653649,195.17036 116.28506,76.729163 0 0 0 102.63176,271.89953 116.28506,76.729163 0 0 0 218.91665,195.17036 116.28506,76.729163 0 0 0 102.63176,118.44119 Z m 0,22.67872 a 54.050591,54.050591 0 0 1 54.05044,54.05045 54.050591,54.050591 0 0 1 -54.05044,54.05045 54.050591,54.050591 0 0 1 -54.050966,-54.05045 54.050591,54.050591 0 0 1 54.050966,-54.05045 z"
         style="opacity:1;fill:#009696;fill-opacity:1;stroke-width:0.3257198" />
      <path
         inkscape:connector-curvature="0"
         id="circle4335"
         d="M 102.63176,1.3770244 A 76.729163,76.729163 0 0 0 25.902592,78.106189 H 48.580794 A 54.050591,54.050591 0 0 1 102.63176,24.055742 54.050591,54.050591 0 0 1 156.6822,78.106189 h 22.67872 A 76.729163,76.729163 0 0 0 102.63176,1.3770244 Z"
         style="opacity:1;fill:#db38ae;fill-opacity:1;stroke-width:0.26458332" />
      <circle
         style="opacity:1;fill:#db38ae;fill-opacity:1;stroke-width:0.09253898"
         id="circle4339"
         cx="102.63161"
         cy="78.106346"
         r="26.836306" />
    </g>
  </g>
</svg>
